<svg width="70" height="70" viewBox="0 0 70 70" fill="none" xmlns="http://www.w3.org/2000/svg">
<path d="M6.58848 17.3258C6.84195 15.1959 8.31739 13.5784 10.4257 13.1844C14.0266 12.5114 21.0373 11.6666 33.5416 11.6666C46.0459 11.6666 53.0566 12.5114 56.6575 13.1844C58.7658 13.5784 60.2412 15.1959 60.4946 17.3258C60.8531 20.3373 61.2499 25.7584 61.2499 35C61.2499 44.2416 60.8531 49.6626 60.4946 52.6741C60.2412 54.804 58.7658 56.4216 56.6575 56.8156C53.0566 57.4885 46.0459 58.3333 33.5416 58.3333C21.0373 58.3333 14.0266 57.4885 10.4257 56.8156C8.31739 56.4216 6.84195 54.804 6.58848 52.6741C6.23008 49.6626 5.83325 44.2416 5.83325 35C5.83325 25.7584 6.23008 20.3373 6.58848 17.3258Z" fill="#FFC1A6"/>
<path d="M50.7939 5.92441C51.7055 5.99957 52.332 6.66735 52.3938 7.58C52.4507 8.41845 52.5 9.71001 52.5 11.6666C52.5 11.9837 52.4987 12.2834 52.4964 12.5665C54.2195 12.7699 55.5882 12.9847 56.6567 13.1843C58.765 13.5784 60.2404 15.1959 60.4939 17.3258C60.6627 18.7443 60.8401 20.6978 60.9805 23.3333H6.10107C6.24147 20.6978 6.41883 18.7443 6.58766 17.3258C6.84113 15.1959 8.31657 13.5784 10.4249 13.1843C11.4937 12.9846 12.8629 12.7697 14.587 12.5663C14.5847 12.2832 14.5833 11.9836 14.5833 11.6666C14.5833 9.71001 14.6326 8.41845 14.6895 7.58C14.7513 6.66735 15.3778 5.99957 16.2894 5.92441C16.9098 5.87327 17.7736 5.83325 18.9583 5.83325C20.1431 5.83325 21.0069 5.87327 21.6272 5.92441C22.5388 5.99957 23.1653 6.66735 23.2272 7.58C23.284 8.41845 23.3333 9.71001 23.3333 11.6666C23.3333 11.7402 23.3333 11.8128 23.3332 11.8845C26.2382 11.7497 29.6193 11.6666 33.5408 11.6666C37.463 11.6666 40.8447 11.7497 43.7502 11.8846L43.75 11.6666C43.75 9.71001 43.7993 8.41845 43.8562 7.58C43.918 6.66735 44.5445 5.99957 45.4561 5.92441C46.0765 5.87327 46.9403 5.83325 48.125 5.83325C49.3098 5.83325 50.1735 5.87327 50.7939 5.92441Z" fill="#E04476"/>
<path d="M14.6487 32.3737C14.6996 31.536 15.2446 30.8872 16.0767 30.7787C16.7191 30.6949 17.6476 30.625 18.9583 30.625C20.2689 30.625 21.1974 30.6949 21.8398 30.7787C22.6719 30.8872 23.2169 31.536 23.2678 32.3737C23.3042 32.9728 23.3333 33.8204 23.3333 35C23.3333 36.1796 23.3042 37.0272 23.2678 37.6263C23.2169 38.464 22.6719 39.1128 21.8398 39.2213C21.1974 39.3051 20.2689 39.375 18.9583 39.375C17.6476 39.375 16.7191 39.3051 16.0767 39.2213C15.2446 39.1128 14.6996 38.464 14.6487 37.6263C14.6123 37.0272 14.5833 36.1796 14.5833 35C14.5833 33.8204 14.6123 32.9728 14.6487 32.3737Z" fill="#E04476"/>
<path d="M47.8909 32.1266C48.6909 31.8988 49.3785 32.6029 49.4166 33.4528C49.5125 35.6008 49.904 38.0327 51.0342 39.6029C51.5431 40.31 52.523 40.4837 53.1342 39.8674C53.8655 39.1299 54.4236 37.9491 54.8441 36.689C55.1804 35.6811 56.3638 35.2172 57.1708 35.8883C61.3204 39.3392 65.6251 44.6443 65.6251 51.8039C65.6251 61.3453 58.4429 65.6249 49.5834 65.6249C40.7239 65.6249 33.5417 61.3453 33.5417 51.8039C33.5417 41.9848 41.6384 35.6537 46.3274 32.8105C46.8263 32.5079 47.3519 32.28 47.8909 32.1266Z" fill="#E04476"/>
<path d="M50.1461 46.817C49.7901 46.6165 49.3771 46.6165 49.0211 46.817C47.5587 47.6402 43.7502 50.1961 43.7502 54.4843C43.7502 58.1483 46.362 59.7917 49.5836 59.7917C52.8052 59.7917 55.4169 58.1483 55.4169 54.4843C55.4169 50.1961 51.6085 47.6402 50.1461 46.817Z" fill="#FFC1A6"/>
</svg>
