<svg width="70" height="70" viewBox="0 0 70 70" fill="none" xmlns="http://www.w3.org/2000/svg">
<path d="M6.58854 17.3258C6.84201 15.1959 8.31745 13.5784 10.4258 13.1844C14.0266 12.5114 21.0373 11.6666 33.5416 11.6666C46.046 11.6666 53.0566 12.5114 56.6575 13.1844C58.7659 13.5784 60.2412 15.1959 60.4947 17.3258C60.8532 20.3373 61.25 25.7584 61.25 35C61.25 44.2416 60.8532 49.6626 60.4947 52.6741C60.2412 54.804 58.7659 56.4216 56.6575 56.8156C53.0566 57.4885 46.046 58.3333 33.5416 58.3333C21.0373 58.3333 14.0266 57.4885 10.4258 56.8156C8.31745 56.4216 6.84201 54.804 6.58854 52.6741C6.23014 49.6626 5.83331 44.2416 5.83331 35C5.83331 25.7584 6.23014 20.3373 6.58854 17.3258Z" fill="#A6CFFF"/>
<path d="M50.7938 5.92441C51.7054 5.99957 52.3319 6.66735 52.3938 7.58C52.4507 8.41845 52.4999 9.71001 52.4999 11.6666C52.4999 11.9837 52.4986 12.2834 52.4963 12.5665C54.2195 12.7699 55.5881 12.9847 56.6566 13.1843C58.7649 13.5784 60.2403 15.1959 60.4938 17.3258C60.6627 18.7443 60.84 20.6978 60.9804 23.3333H6.10101C6.24141 20.6978 6.41877 18.7443 6.5876 17.3258C6.84107 15.1959 8.31651 13.5784 10.4248 13.1843C11.4936 12.9846 12.8629 12.7697 14.5869 12.5663C14.5846 12.2832 14.5833 11.9836 14.5833 11.6666C14.5833 9.71001 14.6326 8.41845 14.6894 7.58C14.7513 6.66735 15.3778 5.99957 16.2894 5.92441C16.9098 5.87327 17.7735 5.83325 18.9583 5.83325C20.143 5.83325 21.0068 5.87327 21.6272 5.92441C22.5388 5.99957 23.1653 6.66735 23.2271 7.58C23.284 8.41845 23.3333 9.71001 23.3333 11.6666C23.3333 11.7402 23.3333 11.8128 23.3331 11.8845C26.2381 11.7497 29.6193 11.6666 33.5407 11.6666C37.4629 11.6666 40.8447 11.7497 43.7501 11.8846L43.7499 11.6666C43.7499 9.71001 43.7992 8.41845 43.8561 7.58C43.9179 6.66735 44.5444 5.99957 45.4561 5.92441C46.0764 5.87327 46.9402 5.83325 48.1249 5.83325C49.3097 5.83325 50.1735 5.87327 50.7938 5.92441Z" fill="#1575E5"/>
<path d="M14.6488 32.3737C14.6997 31.536 15.2447 30.8872 16.0768 30.7787C16.7192 30.6949 17.6477 30.625 18.9583 30.625C20.2689 30.625 21.1974 30.6949 21.8398 30.7787C22.672 30.8872 23.2169 31.536 23.2678 32.3737C23.3043 32.9728 23.3333 33.8204 23.3333 35C23.3333 36.1796 23.3043 37.0272 23.2678 37.6263C23.2169 38.464 22.672 39.1128 21.8398 39.2213C21.1974 39.3051 20.2689 39.375 18.9583 39.375C17.6477 39.375 16.7192 39.3051 16.0768 39.2213C15.2447 39.1128 14.6997 38.464 14.6488 37.6263C14.6123 37.0272 14.5833 36.1796 14.5833 35C14.5833 33.8204 14.6123 32.9728 14.6488 32.3737Z" fill="#1575E5"/>
<path d="M47.8908 32.1266C48.6908 31.8988 49.3784 32.6029 49.4165 33.4528C49.5124 35.6008 49.9038 38.0327 51.034 39.6029C51.543 40.31 52.5229 40.4837 53.134 39.8674C53.8654 39.1299 54.4235 37.9491 54.8439 36.689C55.1802 35.6811 56.3637 35.2172 57.1707 35.8883C61.3203 39.3392 65.625 44.6443 65.625 51.8039C65.625 61.3453 58.4428 65.6249 49.5833 65.6249C40.7238 65.6249 33.5416 61.3453 33.5416 51.8039C33.5416 41.9848 41.6383 35.6537 46.3273 32.8105C46.8262 32.5079 47.3518 32.28 47.8908 32.1266Z" fill="#1575E5"/>
<path d="M50.1459 46.817C49.7899 46.6165 49.3769 46.6165 49.0209 46.817C47.5585 47.6402 43.7501 50.1961 43.7501 54.4843C43.7501 58.1483 46.3618 59.7917 49.5834 59.7917C52.805 59.7917 55.4167 58.1483 55.4167 54.4843C55.4167 50.1961 51.6083 47.6402 50.1459 46.817Z" fill="#A6CFFF"/>
</svg>
